<svg xmlns="http://www.w3.org/2000/svg" width="32.563" height="27.919" viewBox="0 0 32.563 27.919"><defs><style>.a{fill:#231f20;}</style></defs><g transform="translate(-4 -7.993)"><path class="a" d="M35.4,19.626H30.748V9.16A1.163,1.163,0,0,0,29,8.154L23.77,11.2,17.955,8.131a1.163,1.163,0,0,0-1.1,0l-5.815,3.175-5.3-3.14A1.163,1.163,0,0,0,4,9.16V31.837a4.07,4.07,0,0,0,4.07,4.07h23.84a1.2,1.2,0,0,0,.2,0h.378a4.07,4.07,0,0,0,4.07-4.07V20.789A1.163,1.163,0,0,0,35.4,19.626ZM8.07,33.582a1.744,1.744,0,0,1-1.744-1.744V11.212l4.07,2.431a1.163,1.163,0,0,0,1.163.029l5.815-3.192,5.844,3.07a1.163,1.163,0,0,0,1.122,0l4.07-2.326V31.837a4,4,0,0,0,.4,1.744Zm26.166-1.744a1.744,1.744,0,1,1-3.489,0V21.952h3.489Z" transform="translate(0 0)"/><path class="a" d="M27.955,28H15.163a1.163,1.163,0,1,0,0,2.326H27.955a1.163,1.163,0,0,0,0-2.326Z" transform="translate(-4.185 -8.374)"/><path class="a" d="M27.955,40H15.163a1.163,1.163,0,1,0,0,2.326H27.955a1.163,1.163,0,0,0,0-2.326Z" transform="translate(-4.185 -13.396)"/></g></svg>