<svg xmlns="http://www.w3.org/2000/svg" width="18.762" height="31.27" viewBox="0 0 18.762 31.27"><defs><style>.a{fill:#fff;}</style></defs><path class="a" d="M523.335,284.143a1.96,1.96,0,1,0-.574,1.38A1.882,1.882,0,0,0,523.335,284.143Zm5.081-3.909v-17.2a.793.793,0,0,0-.782-.782H515.127a.793.793,0,0,0-.782.782v17.2a.793.793,0,0,0,.782.782h12.508a.793.793,0,0,0,.782-.782Zm-4.69-20.716a.346.346,0,0,0-.391-.391h-3.909a.391.391,0,0,0,0,.782h3.909A.345.345,0,0,0,523.726,259.518Zm7.036-.391v25.016a3.17,3.17,0,0,1-3.127,3.127H515.127A3.17,3.17,0,0,1,512,284.143V259.127A3.17,3.17,0,0,1,515.127,256h12.508a3.17,3.17,0,0,1,3.127,3.127Z" transform="translate(-512 -256)"/></svg>