<svg xmlns="http://www.w3.org/2000/svg" width="35.094" height="35.094" viewBox="0 0 35.094 35.094"><defs><style>.a{fill:#2c3844;}</style></defs><path class="a" d="M82.08,99.627a17.5,17.5,0,1,1,6.83-1.379A17.438,17.438,0,0,1,82.08,99.627Zm0-32.584A15.037,15.037,0,1,0,97.117,82.08,15.054,15.054,0,0,0,82.08,67.043Zm0,14.849-2.51,0a2.51,2.51,0,1,0,2.51-2.51A2.51,2.51,0,0,0,79.57,81.892Zm-5.019,0-2.51,0a2.51,2.51,0,1,0,2.51-2.51A2.51,2.51,0,0,0,72.041,81.892Zm17.568,0-2.51,0a2.51,2.51,0,1,0,2.51-2.51A2.51,2.51,0,0,0,87.1,81.892Z" transform="translate(-64.533 -64.533)"/></svg>