<svg xmlns="http://www.w3.org/2000/svg" width="35.75" height="34.38" viewBox="0 0 35.75 34.38"><defs><style>.a,.b{fill:none;}.b{stroke:#54b74c;stroke-miterlimit:10;stroke-width:2.5px;}</style></defs><g transform="translate(1.719 -0.031)"><rect class="a" width="34" height="34" transform="translate(0.031 0.031)"/><path class="b" d="M18.883,21.966s2.478-1.419,3.127-1.76a1.86,1.86,0,0,1,1.724-.18c.616.377,5.792,3.82,6.228,4.125a1.475,1.475,0,0,1,.047,2.032c-.6.854-3.35,4.233-4.517,4.2s-6.027-.144-15.188-9.308S1.037,7.052,1,5.883,4.341,1.962,5.2,1.364a1.494,1.494,0,0,1,2.033.048c.345.478,3.748,5.637,4.123,6.229a1.84,1.84,0,0,1-.18,1.725c-.34.649-1.759,3.127-1.759,3.127A30.393,30.393,0,0,0,13.8,17.581,30.537,30.537,0,0,0,18.883,21.966Z" transform="translate(-1.468 2.781)"/></g></svg>