<svg xmlns="http://www.w3.org/2000/svg" width="28.238" height="28.238" viewBox="0 0 28.238 28.238"><defs><style>.a{fill:#fff;}</style></defs><path class="a" d="M27.062,0H1.177A1.112,1.112,0,0,0,0,1.177V27.062a1.112,1.112,0,0,0,1.177,1.177H27.062a1.112,1.112,0,0,0,1.177-1.177V1.177A1.112,1.112,0,0,0,27.062,0ZM2.353,8.236H3.53V20H2.353ZM25.885,25.885H2.353v-3.53H3.53v2.353H24.708V3.53H3.53V5.883H2.353V2.353H25.885ZM4.706,23.532V4.706H23.532V23.532Z"/><path class="a" d="M15.53,9A3.467,3.467,0,0,0,12,12.53a3.53,3.53,0,0,0,7.06,0A3.467,3.467,0,0,0,15.53,9Zm0,5.883a2.353,2.353,0,1,1,2.353-2.353A2.36,2.36,0,0,1,15.53,14.883Z" transform="translate(2.119 1.589)"/></svg>