<svg xmlns="http://www.w3.org/2000/svg" width="30.435" height="22.718" viewBox="0 0 30.435 22.718"><defs><style>.a{fill:#fff;stroke:#54b74c;stroke-width:0.5px;}</style></defs><path class="a" d="M-52.026,271.553h5.987v-1.666h-2V262.11h-1.777l-2.307,2.378,1.2,1.389a5.569,5.569,0,0,0,.858-.989h.031v5h-2Zm7.983-4.444a9.7,9.7,0,0,1-.327,2.465A9.908,9.908,0,0,1-45.3,271.9a5.13,5.13,0,0,1-1.582,1.753,3.712,3.712,0,0,1-2.152.677,3.712,3.712,0,0,1-2.152-.677,5.13,5.13,0,0,1-1.582-1.753,9.907,9.907,0,0,1-.928-2.326,9.7,9.7,0,0,1-.327-2.465,9.7,9.7,0,0,1,.327-2.465,9.906,9.906,0,0,1,.928-2.326,5.129,5.129,0,0,1,1.582-1.753,3.712,3.712,0,0,1,2.152-.677,3.712,3.712,0,0,1,2.152.677,5.13,5.13,0,0,1,1.582,1.753,9.906,9.906,0,0,1,.928,2.326A9.7,9.7,0,0,1-44.043,267.109Zm7.983,4.444v-8.887a3.66,3.66,0,0,1-2.822-1.3,4.537,4.537,0,0,1-1.169-3.142H-58.013a4.537,4.537,0,0,1-1.169,3.142,3.66,3.66,0,0,1-2.822,1.3v8.887a3.66,3.66,0,0,1,2.822,1.3A4.537,4.537,0,0,1-58.013,276h17.961a4.537,4.537,0,0,1,1.169-3.142A3.66,3.66,0,0,1-36.061,271.553Zm2-14.442v20a1.13,1.13,0,0,1-.3.781.914.914,0,0,1-.7.33H-63a.914.914,0,0,1-.7-.33,1.13,1.13,0,0,1-.3-.781v-20a1.13,1.13,0,0,1,.3-.781A.914.914,0,0,1-63,256h27.939a.914.914,0,0,1,.7.33A1.13,1.13,0,0,1-34.065,257.111Z" transform="translate(64.25 -255.75)"/></svg>