<svg xmlns="http://www.w3.org/2000/svg" width="29.726" height="25.487" viewBox="0 0 29.726 25.487"><defs><style>.a{fill:#fff;}</style></defs><g transform="translate(-4 -7.993)"><path class="a" d="M32.664,18.613H28.418V9.058a1.062,1.062,0,0,0-1.592-.918l-4.777,2.776-5.308-2.8a1.062,1.062,0,0,0-1,0l-5.308,2.9L5.592,8.15A1.062,1.062,0,0,0,4,9.058v20.7a3.716,3.716,0,0,0,3.716,3.716H29.479a1.1,1.1,0,0,0,.186,0h.345a3.716,3.716,0,0,0,3.716-3.716V19.675A1.062,1.062,0,0,0,32.664,18.613ZM7.716,31.353A1.592,1.592,0,0,1,6.123,29.76V10.932l3.716,2.219a1.062,1.062,0,0,0,1.062.027l5.308-2.914,5.335,2.8a1.062,1.062,0,0,0,1.024,0l3.716-2.123V29.76a3.652,3.652,0,0,0,.361,1.592ZM31.6,29.76a1.592,1.592,0,1,1-3.185,0V20.736H31.6Z" transform="translate(0 0)"/><path class="a" d="M26.74,28H15.062a1.062,1.062,0,1,0,0,2.123H26.74a1.062,1.062,0,0,0,0-2.123Z" transform="translate(-4.692 -9.387)"/><path class="a" d="M26.74,40H15.062a1.062,1.062,0,0,0,0,2.123H26.74a1.062,1.062,0,0,0,0-2.123Z" transform="translate(-4.692 -15.017)"/></g></svg>