<svg xmlns="http://www.w3.org/2000/svg" xmlns:xlink="http://www.w3.org/1999/xlink" width="30" height="30" viewBox="0 0 30 30"><defs><style>.a{fill:none;}.a,.c{stroke:#fff;stroke-width:0.5px;}.b{clip-path:url(#a);}.c{fill:#fff;}</style><clipPath id="a"><rect class="a" width="30" height="30" transform="translate(5.788 5.788)"/></clipPath></defs><g class="b" transform="translate(-5.788 -5.788)"><rect class="c" width="2" height="1" transform="translate(19.788 34.788)"/><path class="c" d="M32.356,9.215v4.722H30.614V9.215a.775.775,0,0,0-.357-.662.81.81,0,0,0-.758-.078,120.137,120.137,0,0,0-11.326,5.454h-3.7l2.805-1.455C21.03,10.53,24.89,8.509,28.714,6.967a2.77,2.77,0,0,1,2-.07A2.483,2.483,0,0,1,32.356,9.215Z" transform="translate(-1.114 -0.119)"/><path class="c" d="M33.112,16H8.5A2.614,2.614,0,0,0,6,18.692v15.49a2.614,2.614,0,0,0,2.535,2.727h8.791V35.167H8.613a.871.871,0,0,1-.871-.871V18.614a.871.871,0,0,1,.871-.871H33.007a.871.871,0,0,1,.871.871V22.97h-12.2a3.485,3.485,0,0,0,0,6.97h12.2V34.3a.871.871,0,0,1-.871.871H24.3v1.742h8.825a2.614,2.614,0,0,0,2.5-2.692V18.7A2.614,2.614,0,0,0,33.112,16ZM21.682,28.2a1.742,1.742,0,1,1,0-3.485h12.2V28.2Z" transform="translate(-0.023 -1.311)"/></g></svg>