<svg xmlns="http://www.w3.org/2000/svg" width="30.243" height="29.014" viewBox="0 0 30.243 29.014"><defs><style>.a,.b{fill:none;}.b{stroke:#fff;stroke-miterlimit:10;stroke-width:2px;}</style></defs><g transform="translate(1)"><rect class="a" width="28.059" height="28.059" transform="translate(1.184 0)"/><path class="b" d="M16.5,19.177s2.149-1.23,2.711-1.526a1.612,1.612,0,0,1,1.495-.156c.534.327,5.022,3.312,5.4,3.576a1.279,1.279,0,0,1,.04,1.762c-.517.741-2.9,3.67-3.916,3.639S17.01,26.347,9.067,18.4,1.032,6.247,1,5.234s2.9-3.4,3.638-3.918A1.3,1.3,0,0,1,6.4,1.357c.3.414,3.25,4.888,3.575,5.4a1.6,1.6,0,0,1-.156,1.5c-.3.563-1.525,2.711-1.525,2.711a26.351,26.351,0,0,0,3.8,4.411A26.476,26.476,0,0,0,16.5,19.177Z" transform="translate(-0.999 1.541)"/></g></svg>