<svg xmlns="http://www.w3.org/2000/svg" width="28.448" height="28.448" viewBox="0 0 28.448 28.448"><defs><style>.a{fill:#fff;}</style></defs><g transform="translate(0 0.001)"><g transform="translate(0 -0.001)"><path class="a" d="M27.516,17.69a1.185,1.185,0,0,0-1.185,1.185,2.59,2.59,0,0,1-2.537,2.634H8.9l3.3-3.387a1.185,1.185,0,1,0-1.7-1.656l-5.265,5.4a1.186,1.186,0,0,0,0,1.656l5.265,5.4a1.185,1.185,0,1,0,1.7-1.656L8.9,23.88H23.81c.006,0,.011,0,.017,0a4.961,4.961,0,0,0,4.874-5,1.185,1.185,0,0,0-1.185-1.185Z" transform="translate(-0.254 -0.833)"/><path class="a" d="M19.8,7.771l-3.3,3.387a1.185,1.185,0,1,0,1.7,1.656l5.265-5.4a1.186,1.186,0,0,0,0-1.656L18.192.357a1.185,1.185,0,1,0-1.7,1.656L19.8,5.4H4.891c-.006,0-.011,0-.017,0A4.961,4.961,0,0,0,0,10.4a1.185,1.185,0,1,0,2.371,0A2.59,2.59,0,0,1,4.908,7.771Z" transform="translate(0 0.001)"/></g></g></svg>