<svg xmlns="http://www.w3.org/2000/svg" width="16.71" height="16.686" viewBox="0 0 16.71 16.686"><defs><style>.a{fill:#222328;stroke:#222328;stroke-width:0.5px;}</style></defs><g transform="translate(-9.423 -3.154)"><g transform="translate(9.673 3.404)"><path class="a" d="M261.934,111.267a4.567,4.567,0,0,1-4.562-4.562v-2.252a4.562,4.562,0,1,1,9.124,0v2.252A4.567,4.567,0,0,1,261.934,111.267Zm0-10.728a3.919,3.919,0,0,0-3.915,3.915v2.252a3.915,3.915,0,0,0,7.829,0v-2.252A3.919,3.919,0,0,0,261.934,100.539Z" transform="translate(-253.795 -99.891)"/><path class="a" d="M114.139,565.3H101.754a1.915,1.915,0,0,1-1.913-1.913v-1.414c0-.624.316-1.461,1.823-1.9l1.852-.513a.324.324,0,1,1,.173.624l-1.848.511c-1.352.394-1.352,1.059-1.352,1.277v1.414a1.267,1.267,0,0,0,1.266,1.266h12.384a1.267,1.267,0,0,0,1.266-1.266v-1.414c0-.59-.456-1.02-1.355-1.278l-1.763-.493a.324.324,0,1,1,.174-.624l1.765.494c1.51.434,1.826,1.273,1.826,1.9v1.414A1.915,1.915,0,0,1,114.139,565.3Z" transform="translate(-99.841 -549.115)"/></g></g></svg>