<svg xmlns="http://www.w3.org/2000/svg" xmlns:xlink="http://www.w3.org/1999/xlink" width="34" height="34" viewBox="0 0 34 34"><defs><style>.a{fill:none;}.a,.c{stroke:#2c3844;}.b{clip-path:url(#a);}.c{fill:#2c3844;}</style><clipPath id="a"><rect class="a" width="34" height="34" transform="translate(6 6)"/></clipPath></defs><g class="b" transform="translate(-6 -6)"><rect class="c" width="2" height="2" transform="translate(22 38)"/><path class="c" d="M35,9.58V15H33V9.58a.89.89,0,0,0-.41-.76.93.93,0,0,0-.87-.09,137.9,137.9,0,0,0-13,6.26H14.47l3.22-1.67C22,11.09,26.43,8.77,30.82,7a3.18,3.18,0,0,1,2.29-.08A2.85,2.85,0,0,1,35,9.58Z"/><path class="c" d="M37.12,16H8.87A3,3,0,0,0,6,19.09V36.87A3,3,0,0,0,8.91,40H19V38H9a1,1,0,0,1-1-1V19a1,1,0,0,1,1-1H37a1,1,0,0,1,1,1v5H24a4,4,0,0,0,0,8H38v5a1,1,0,0,1-1,1H27v2H37.13A3,3,0,0,0,40,36.91V19.1A3,3,0,0,0,37.12,16ZM24,30a2,2,0,0,1,0-4H38v4Z"/></g></svg>